<?xml version="1.0" encoding="utf-8"?>
<svg viewBox="0 0 48 48" width="240px" height="240px" xmlns="http://www.w3.org/2000/svg">
  <path fill="#dcd5f2" d="M 24 33.375 C 14.406 33.375 6.599 29.17 6.599 24 C 6.599 18.83 14.406 14.625 24 14.625 C 33.594 14.625 41.401 18.83 41.401 24 C 41.401 29.17 33.594 33.375 24 33.375 Z"/>
  <path fill="#8b75a1" d="M 24 15.25 C 33.107 15.25 40.799 19.258 40.799 24 C 40.799 28.743 33.107 32.75 24 32.75 C 14.893 32.75 7.201 28.743 7.201 24 C 7.201 19.258 14.893 15.25 24 15.25 M 24 14 C 14.059 14 6 18.478 6 24 C 6 29.523 14.059 34 24 34 C 33.941 34 42 29.523 42 24 C 42 18.478 33.941 14 24 14 L 24 14 Z"/>
  <path fill="#36404d" d="M 17.301 21.5 C 18.019 21.5 18.639 21.754 18.961 22.179 C 19.192 22.484 19.254 22.873 19.151 23.338 C 18.829 24.749 18.259 25.25 15.707 25.25 L 13.897 25.25 L 14.571 21.5 L 17.301 21.5 M 17.301 20.25 L 13.576 20.25 L 11.999 29 L 13.2 29 L 13.674 26.5 L 15.707 26.5 C 18.346 26.5 19.782 25.979 20.316 23.626 C 20.779 21.605 19.247 20.25 17.301 20.25 L 17.301 20.25 Z M 32.899 21.5 C 33.617 21.5 34.24 21.754 34.561 22.179 C 34.793 22.484 34.855 22.873 34.749 23.338 C 34.427 24.749 33.859 25.25 31.307 25.25 L 29.495 25.25 L 30.172 21.5 L 32.899 21.5 M 32.899 20.25 L 29.177 20.25 L 27.6 29 L 28.801 29 L 29.275 26.5 L 31.307 26.5 C 33.947 26.5 35.381 25.979 35.917 23.626 C 36.379 21.605 34.848 20.25 32.899 20.25 L 32.899 20.25 Z"/>
  <g transform="matrix(1.200001, 0, 0, 1.25, 6, 5.25)">
    <path fill="#36404d" d="M17.652,12.424C17.323,12.122,16.742,12,15.875,12h-1.848l0.451-2h-1.017L12,17h1.016l0.841-4h0.171 h1.848c0.91,0,1.094,0.155,1.096,0.155c0.019,0.03,0.058,0.194-0.008,0.532L16.288,17h1.046l0.61-3.121 C18.075,13.212,17.976,12.722,17.652,12.424z"/>
  </g>
</svg>