<?xml version="1.0" encoding="utf-8"?>
<svg viewBox="0 0 48 48" width="240px" height="240px" xmlns="http://www.w3.org/2000/svg">
  <path fill="#f06292" d="M 37.703 26.018 C 36.375 26.025 35.225 26.327 34.26 26.778 C 33.909 26.111 33.552 25.523 33.492 25.087 C 33.421 24.578 33.341 24.274 33.424 23.668 C 33.51 23.061 33.879 22.2 33.875 22.136 C 33.87 22.072 33.792 21.763 33.025 21.757 C 32.26 21.752 31.604 21.898 31.527 22.089 C 31.45 22.28 31.303 22.712 31.212 23.162 C 31.078 23.82 29.681 26.169 28.89 27.397 C 28.631 26.917 28.41 26.494 28.365 26.161 C 28.294 25.652 28.213 25.346 28.298 24.74 C 28.383 24.133 28.753 23.275 28.748 23.209 C 28.744 23.145 28.666 22.836 27.899 22.831 C 27.133 22.825 26.478 22.97 26.401 23.162 C 26.324 23.354 26.241 23.802 26.084 24.235 C 25.928 24.668 24.073 28.586 23.587 29.601 C 23.339 30.119 23.124 30.535 22.972 30.818 C 22.971 30.817 22.971 30.816 22.971 30.816 C 22.971 30.816 22.962 30.836 22.947 30.867 C 22.816 31.109 22.74 31.242 22.74 31.242 C 22.74 31.242 22.74 31.244 22.741 31.247 C 22.638 31.424 22.528 31.589 22.473 31.589 C 22.435 31.589 22.359 31.117 22.49 30.469 C 22.766 29.109 23.428 26.991 23.423 26.917 C 23.419 26.88 23.546 26.51 22.989 26.317 C 22.449 26.129 22.256 26.442 22.207 26.443 C 22.16 26.444 22.124 26.554 22.124 26.554 C 22.124 26.554 22.726 24.171 20.975 24.171 C 19.881 24.171 18.364 25.306 17.617 26.335 C 17.146 26.579 16.136 27.102 15.065 27.659 C 14.655 27.873 14.235 28.092 13.837 28.3 C 13.809 28.272 13.783 28.244 13.754 28.215 C 11.631 26.068 7.707 24.549 7.873 21.661 C 7.934 20.612 8.317 17.849 15.415 14.497 C 21.228 11.75 25.882 12.506 26.686 14.18 C 27.834 16.573 24.199 21.02 18.161 21.661 C 15.861 21.906 14.65 21.061 14.349 20.746 C 14.032 20.415 13.984 20.4 13.865 20.462 C 13.674 20.564 13.795 20.856 13.865 21.03 C 14.047 21.475 14.786 22.264 16.047 22.656 C 17.156 23.002 19.857 23.191 23.122 21.994 C 26.781 20.652 29.638 16.92 28.798 13.802 C 27.945 10.63 22.397 9.588 17.146 11.357 C 14.017 12.41 10.634 14.061 8.201 16.217 C 5.309 18.782 4.847 21.013 5.037 21.946 C 5.712 25.261 10.531 27.418 12.459 29.017 C 12.364 29.067 12.275 29.114 12.193 29.156 C 11.226 29.61 7.555 31.432 6.635 33.357 C 5.593 35.54 6.8 37.107 7.6 37.318 C 10.079 37.972 12.621 36.796 13.988 34.864 C 15.354 32.933 15.188 30.417 14.561 29.27 C 14.552 29.256 14.544 29.242 14.536 29.227 C 14.786 29.087 15.041 28.944 15.292 28.803 C 15.784 28.529 16.269 28.274 16.688 28.057 C 16.452 28.667 16.28 29.397 16.192 30.453 C 16.087 31.693 16.622 33.294 17.324 33.925 C 17.633 34.203 18.005 34.209 18.239 34.209 C 19.055 34.209 19.428 33.565 19.838 32.804 C 20.341 31.871 20.787 30.783 20.787 30.783 C 20.787 30.783 20.228 33.719 21.752 33.719 C 22.309 33.719 22.868 33.036 23.118 32.688 C 23.119 32.692 23.119 32.693 23.119 32.693 C 23.119 32.693 23.133 32.671 23.161 32.625 C 23.219 32.542 23.253 32.489 23.253 32.489 C 23.253 32.489 23.253 32.483 23.254 32.473 C 23.479 32.105 23.975 31.268 24.716 29.884 C 25.677 28.098 26.597 25.86 26.597 25.86 C 26.597 25.86 26.683 26.408 26.964 27.313 C 27.129 27.844 27.479 28.434 27.757 28.998 C 27.534 29.291 27.397 29.459 27.397 29.459 C 27.397 29.459 27.398 29.462 27.401 29.468 C 27.224 29.693 27.023 29.934 26.814 30.169 C 26.056 31.025 25.153 32.003 25.033 32.284 C 24.89 32.617 24.925 32.861 25.199 33.058 C 25.4 33.201 25.759 33.224 26.132 33.2 C 26.813 33.157 27.292 32.996 27.529 32.899 C 27.897 32.775 28.327 32.581 28.729 32.3 C 29.472 31.782 29.922 31.042 29.878 30.059 C 29.853 29.518 29.673 28.982 29.442 28.476 C 29.509 28.384 29.577 28.29 29.644 28.197 C 30.816 26.573 31.727 24.789 31.727 24.789 C 31.727 24.789 31.811 25.335 32.092 26.241 C 32.234 26.698 32.514 27.199 32.767 27.689 C 31.665 28.537 30.982 29.524 30.744 30.17 C 30.305 31.368 30.649 31.909 31.293 32.033 C 31.585 32.089 31.998 31.962 32.308 31.837 C 32.695 31.716 33.157 31.514 33.591 31.212 C 34.334 30.693 35.051 29.968 35.007 28.987 C 34.987 28.54 34.86 28.096 34.686 27.67 C 35.621 27.301 36.829 27.097 38.37 27.267 C 41.675 27.633 42.323 29.588 42.199 30.407 C 42.075 31.226 41.382 31.676 41.151 31.812 C 40.919 31.948 40.849 31.996 40.868 32.096 C 40.895 32.242 41.002 32.238 41.2 32.206 C 41.473 32.162 42.936 31.54 42.997 30.029 C 43.076 28.109 41.137 26.001 37.703 26.018 Z M 12.229 34.159 C 11.133 35.291 9.606 35.718 8.948 35.359 C 8.24 34.969 8.522 33.303 9.864 32.101 C 10.683 31.369 11.739 30.694 12.44 30.279 C 12.601 30.188 12.835 30.055 13.12 29.893 C 13.167 29.868 13.195 29.854 13.195 29.854 L 13.194 29.852 C 13.249 29.821 13.305 29.789 13.363 29.756 C 13.852 31.465 13.378 32.971 12.229 34.159 Z M 20.204 29.02 C 19.824 29.901 19.026 32.156 18.54 32.035 C 18.122 31.93 17.868 30.217 18.457 28.531 C 18.751 27.682 19.384 26.667 19.756 26.274 C 20.353 25.64 21.01 25.433 21.171 25.69 C 21.373 26.017 20.443 28.467 20.204 29.02 Z M 26.793 32 C 26.632 32.08 26.483 32.131 26.414 32.092 C 26.364 32.064 26.482 31.957 26.482 31.957 C 26.482 31.957 27.305 31.117 27.63 30.734 C 27.819 30.512 28.038 30.248 28.275 29.952 C 28.277 29.982 28.278 30.012 28.278 30.04 C 28.276 31.047 27.25 31.727 26.793 32 Z M 31.868 30.904 C 31.747 30.823 31.768 30.559 32.165 29.74 C 32.32 29.419 32.677 28.877 33.292 28.359 C 33.364 28.573 33.407 28.776 33.406 28.966 C 33.4 30.234 32.446 30.707 31.868 30.904 Z"/>
</svg>